<svg width="256" height="148" viewBox="0 0 256 148" fill="none" xmlns="http://www.w3.org/2000/svg">
<g id="img">
<path id="Vector" d="M33.78 58.7299C78.6366 94.9281 128.735 105.847 123.877 117.989C120.967 123.666 104.756 113.744 95.8301 110.237C106.153 116.364 125.382 123.149 123.819 129.392C121.824 136.613 102.971 125.68 93.5261 122.905C99.8696 126.866 124.982 133.266 121.576 140.421C118.664 149.775 49.1295 121.655 5.74609 88.3656M250.539 70.4999C205.196 144.882 135.881 141.07 135.663 131.497C135.865 125.673 156.067 125.359 162.211 122.631C153.454 123.924 135.919 128.076 135.043 121.397C133.703 116.307 153.566 113.693 163.525 109.53C155.139 111.536 139.53 114.576 138.23 110.485C134.575 100.598 183.372 99.606 211.241 59.9999M108.955 39.8174C106.317 29.3348 107.695 17.8239 112.294 11.3226C114.678 7.95502 119.316 5.26821 123.339 6.46231C125.784 7.18773 129.622 10.8599 130.019 16.2095C130.87 27.6466 119.234 37.3371 114.28 45.3937C120.51 42.1271 127.014 38.9107 134.029 38.4037C141.044 37.8967 148.762 40.735 152.023 46.9636C155.454 53.5219 152.663 62.3266 146.566 66.5279C140.469 70.7291 131.945 70.5293 125.47 66.9251C118.995 63.3209 114.516 56.7459 112.41 49.6518C116.243 58.8227 116.973 68.9943 114.488 78.6184C113.16 83.691 109.568 89.3979 104.354 88.8383C98.6081 88.2236 96.6603 80.8036 96.9793 75.0368C97.5657 64.7321 100.772 54.7468 106.295 46.0252C98.665 46.1509 90.5012 46.1251 84.1596 41.8853C77.8179 37.6455 74.9496 27.4881 80.6097 22.3651C85.5866 17.8684 93.0515 17.8465 98.636 22.6601C103.718 27.0383 107.778 33.2095 108.95 39.814M116.43 62.4881C124.926 76.4755 129.944 92.4228 131.433 108.706M131.438 105.09C140.733 81.3896 160.882 62.1944 185.013 54.0495C173.199 75.4818 153.894 95.3395 131.438 105.09Z" stroke="#3B3748" stroke-width="4" stroke-linecap="round" stroke-linejoin="round"/>
</g>
</svg>
