<svg width="480" height="480" viewBox="0 0 480 480" fill="none" xmlns="http://www.w3.org/2000/svg">
<circle cx="240" cy="240" r="240" fill="#FFD400"/>
<path d="M203.323 210.211C210.069 195.106 208.833 176.698 200.144 162.615C197.716 158.667 194.478 154.877 190.079 153.402C185.681 151.926 179.966 153.636 178.352 157.987C176.946 161.763 179.191 166.254 182.718 168.236C186.245 170.219 190.649 170.049 194.486 168.776C197.889 167.61 200.969 165.656 203.473 163.075C205.978 160.494 207.838 157.358 208.901 153.922C209.906 150.466 210.078 146.821 209.405 143.285C208.731 139.749 207.231 136.422 205.026 133.577" stroke="#3B3748" stroke-width="4" stroke-linecap="round" stroke-linejoin="round"/>
<path d="M207.433 115.861C253.078 119.293 298.967 117.446 344.189 110.356C341.285 94.4424 337.502 77.9623 327.135 65.555C316.768 53.1476 297.857 46.4045 283.914 54.5799C272.084 61.528 267.573 76.4276 266.62 90.108C240.963 93.137 225.874 100.492 207.433 115.861" stroke="#3B3748" stroke-width="4" stroke-linecap="round" stroke-linejoin="round"/>
<path d="M246.776 119.212C236.989 136.87 230.51 156.094 227.887 176.123L262.292 184.873" stroke="#3B3748" stroke-width="4" stroke-linecap="round" stroke-linejoin="round"/>
<path d="M344.836 110.254C351.685 110.82 358.72 112.336 364.187 116.498C369.654 120.66 373.143 127.996 371.124 134.569C368.828 142.046 360.217 146.1 352.403 145.701C344.588 145.302 337.41 141.49 330.578 137.679" stroke="#3B3748" stroke-width="4" stroke-linecap="round" stroke-linejoin="round"/>
<path d="M341.528 131.581C351.222 134.846 359.637 141.089 365.571 149.418C369.508 154.969 372.252 162.365 369.314 168.498C366.526 174.324 359.58 176.935 353.147 177.507C342.61 178.401 332.114 175.364 323.683 168.981" stroke="#3B3748" stroke-width="4" stroke-linecap="round" stroke-linejoin="round"/>
<path d="M276.213 132.015L277.848 142.332" stroke="#3B3748" stroke-width="4" stroke-linecap="round" stroke-linejoin="round"/>
<path d="M281.243 177.272C283.005 186.637 275.142 196.622 265.624 197.108" stroke="#3B3748" stroke-width="4" stroke-linecap="round" stroke-linejoin="round"/>
<path d="M166.876 248.895C165.316 258.155 166.668 270.114 158.891 268.992C153.764 268.345 153.974 249.251 154.525 238.907C151.767 251.584 152.998 275.609 146.686 275.126C138.591 275.547 139.705 253.928 139.327 243.298C137.439 251.15 141.456 275.077 134.616 276.582C121.332 278.713 107.429 195.695 166.668 137.167" stroke="#3B3748" stroke-width="4" stroke-linecap="round" stroke-linejoin="round"/>
<path d="M222.701 268.366C228.982 269.515 235.607 270.254 240.321 271.012C230.917 272.077 203.674 263.937 200.924 271.667C196.523 286.791 307.622 314.014 368.618 256.474" stroke="#3B3748" stroke-width="4" stroke-linecap="round" stroke-linejoin="round"/>
<path d="M355.482 195.703C306.101 255.768 212.428 226.788 213.275 244.563C213.275 250.602 235.521 253.132 247.626 254.004C232.496 255.371 204.721 250.465 204.373 257.866C203.353 263.619 212.579 266.53 222.69 268.385" stroke="#3B3748" stroke-width="4" stroke-linecap="round" stroke-linejoin="round"/>
<path d="M162.785 198.189C161.239 213.294 158.988 235.899 166.876 248.897C174.269 261.078 189.586 267.894 203.59 265.235" stroke="#3B3748" stroke-width="4" stroke-linecap="round" stroke-linejoin="round"/>
<path d="M229.959 233.105C207.163 231.43 183.978 225.785 162.785 217.224" stroke="#3B3748" stroke-width="4" stroke-linecap="round" stroke-linejoin="round"/>
<path d="M237.615 223.8C232.83 231.023 229.959 233.102 229.959 233.102" stroke="#3B3748" stroke-width="4" stroke-linecap="round" stroke-linejoin="round"/>
</svg>
