<svg width="480" height="480" viewBox="0 0 480 480" fill="none" xmlns="http://www.w3.org/2000/svg">
<circle cx="240" cy="240" r="240" fill="#FFD400"/>
<path d="M256.777 128.319C260.11 108.821 273.552 91.3381 291.536 83.1044C296.59 80.7949 302.303 79.1666 307.656 80.6235C313.009 82.0804 317.545 87.5673 316.266 92.9686C315.147 97.6667 309.941 100.629 305.125 100.253C300.308 99.8773 296.041 96.7899 293.076 92.9752C287.816 86.2093 286.095 76.8351 288.609 68.6409C291.123 60.4467 297.807 53.6523 305.969 51" stroke="#3B3748" stroke-width="4" stroke-linecap="round" stroke-linejoin="round"/>
<path d="M115.274 179.042C112.439 183.12 109.382 187.216 105.166 189.84C100.949 192.464 95.2772 193.323 91.0471 190.719C86.4106 187.878 84.7668 181.674 85.7161 176.319C86.6654 170.964 89.6847 166.237 92.6403 161.671" stroke="#3B3748" stroke-width="4" stroke-linecap="round" stroke-linejoin="round"/>
<path d="M97.4352 186.181C97.3758 193.747 97.9011 202.532 104.052 206.94C108.479 210.116 114.547 209.872 119.77 208.314C128.385 205.711 135.764 200.07 140.533 192.437" stroke="#3B3748" stroke-width="4" stroke-linecap="round" stroke-linejoin="round"/>
<path d="M164.489 233.586C170.126 236.575 176.208 239.278 180.467 241.422C171.192 239.601 147.725 223.623 142.775 230.163C133.912 245.725 230.452 304.069 318.626 263.563" stroke="#3B3748" stroke-width="4" stroke-linecap="round" stroke-linejoin="round"/>
<path d="M312.827 204.451C247.684 246.753 167.263 190.89 162.714 208.079C160.901 213.831 181.304 222.951 192.568 227.416C177.751 224.155 152.795 211.102 150.228 218.046C147.519 223.217 155.425 228.772 164.489 233.582" stroke="#3B3748" stroke-width="4" stroke-linecap="round" stroke-linejoin="round"/>
<path d="M217.356 276.041C192.853 279.447 166.379 277.684 142.15 266.063" stroke="#3B3748" stroke-width="4" stroke-linecap="round" stroke-linejoin="round"/>
<path d="M238.134 151.901C192.613 158.58 146.473 159.981 100.63 156.077C102.412 139.919 105.036 123.115 114.548 109.931C124.061 96.7461 142.541 88.6332 157.104 95.8671C169.458 101.996 175.037 116.622 176.964 130.277C202.894 131.494 218.553 137.801 238.134 151.908" stroke="#3B3748" stroke-width="4" stroke-linecap="round" stroke-linejoin="round"/>
<path d="M202.639 158.661C212.923 172.922 217.168 204.936 218.074 216.35" stroke="#3B3748" stroke-width="4" stroke-linecap="round" stroke-linejoin="round"/>
<path d="M251.905 217.152C252.402 198.115 259.44 173.911 269.228 157.575" stroke="#3B3748" stroke-width="4" stroke-linecap="round" stroke-linejoin="round"/>
<path d="M186.35 170.623C186.112 173.37 185.534 178.71 185.297 181.457" stroke="#3B3748" stroke-width="4" stroke-linecap="round" stroke-linejoin="round"/>
<path d="M282.21 169.547L280.186 182.173" stroke="#3B3748" stroke-width="4" stroke-linecap="round" stroke-linejoin="round"/>
<path d="M286.7 135.588C298.188 117.564 323.995 110.602 342.897 120.424C361.799 130.246 371.111 155.45 363.165 175.312C372.396 171.14 384.564 175.833 388.67 185.138C392.777 194.443 388.076 206.669 378.815 210.768C395.628 215.526 413.132 220.669 425.843 232.698C438.555 244.726 444.587 265.892 434.391 280.15C424.934 293.377 405.601 295.486 390.17 290.579C370.464 284.322 354.045 268.386 347.121 248.796" stroke="#3B3748" stroke-width="4" stroke-linecap="round" stroke-linejoin="round"/>
<path d="M312.754 149.55C315.314 163.042 325.662 174.768 338.732 178.996C335.649 180.346 332.913 182.379 330.732 184.942C328.55 187.506 326.98 190.532 326.141 193.791C325.353 197.063 325.319 200.471 326.042 203.758C326.766 207.045 328.227 210.125 330.316 212.764" stroke="#3B3748" stroke-width="4" stroke-linecap="round" stroke-linejoin="round"/>
<path d="M231.313 127.51C227.224 115.404 217.052 105.536 204.832 101.8" stroke="#3B3748" stroke-width="4" stroke-linecap="round" stroke-linejoin="round"/>
<path d="M218.678 58.5111C224.589 58.8979 230.171 62.6137 232.805 67.9183C235.44 73.2229 235.031 79.9162 231.768 84.8604C229.524 88.2598 225.767 90.8858 221.693 90.8484C217.619 90.811 213.562 87.5105 213.527 83.4365C213.501 80.3601 215.679 77.5628 218.447 76.2399C221.216 74.9171 224.451 74.8907 227.457 75.4972C234.669 76.9497 241.037 82.0895 243.979 88.8334C246.921 95.5773 246.361 103.741 242.522 110.017" stroke="#3B3748" stroke-width="4" stroke-linecap="round" stroke-linejoin="round"/>
</svg>
