<svg width="372" height="301" viewBox="0 0 372 301" fill="none" xmlns="http://www.w3.org/2000/svg">
<path d="M22.6555 120.757C6.89279 148.326 0.0882518 180.111 3.18328 211.715L57.3174 222.182" stroke="#3B3748" stroke-width="4" stroke-linecap="round" stroke-linejoin="round"/>
<path d="M52.248 135.192V151.731" stroke="#3B3748" stroke-width="4" stroke-linecap="round" stroke-linejoin="round"/>
<path d="M104.22 135.413C111.946 129.164 119.916 122.775 129.433 119.879C138.949 116.984 150.455 118.39 156.955 125.907C163.633 133.638 163.188 145.274 160.337 155.087C152.236 182.951 126.607 204.871 97.8171 208.551" stroke="#3B3748" stroke-width="4" stroke-linecap="round" stroke-linejoin="round"/>
<path d="M128.938 145.226C132.033 153.553 129.777 163.61 123.422 169.82" stroke="#3B3748" stroke-width="4" stroke-linecap="round" stroke-linejoin="round"/>
<path d="M76.5724 230.707C77.5687 232.677 78.5873 234.73 78.6354 236.937C78.6834 239.144 77.463 241.546 75.3263 242.103C71.9885 242.977 69.4066 239.262 67.9587 236.13C66.5108 232.997 65.3288 228.546 68.1893 226.553C70.1113 225.221 72.9046 226.006 74.5415 227.678C76.1784 229.35 76.9312 231.668 77.6327 233.897" stroke="#3B3748" stroke-width="4" stroke-linecap="round" stroke-linejoin="round"/>
<path d="M84.6808 87.7463C100.29 77.837 119.189 74.314 137.767 77.1964C154.744 80.0789 170.12 86.8047 181.011 100.897C187.737 110.185 190.3 122.996 183.993 132.53C191.418 135.701 184.592 131.57 183.993 132.53C191.418 135.701 197.843 140.976 202.683 147.41C207.549 153.859 210.775 161.392 212.085 169.362C213.372 177.312 212.461 185.462 209.449 192.931C206.39 200.391 201.551 206.989 195.355 212.148C189.236 217.272 181.872 220.955 174.015 222.454C173.047 222.64 172.076 222.791 171.1 222.909C178.49 225.407 185.883 227.94 193.058 231.018C206.639 237.023 219.773 244.39 228.101 257.841C235.468 270.332 238.031 285.705 230.984 298.234" stroke="#3B3748" stroke-width="4" stroke-linecap="round" stroke-linejoin="round"/>
<path d="M25.5908 80.937L10.3687 70.3967" stroke="#3B3748" stroke-width="4" stroke-linecap="round" stroke-linejoin="round"/>
<path d="M42.4775 69.9071L35.3758 50.7354" stroke="#3B3748" stroke-width="4" stroke-linecap="round" stroke-linejoin="round"/>
<path d="M64.1086 63.5497L66.5244 46.3413" stroke="#3B3748" stroke-width="4" stroke-linecap="round" stroke-linejoin="round"/>
<path d="M117.688 232.146C113.429 243.094 106.013 252.53 96.3822 259.257" stroke="#3B3748" stroke-width="4" stroke-linecap="round" stroke-linejoin="round"/>
<path d="M236.886 197.851C264.604 205.79 296.065 199.183 318.248 180.761C324.471 175.591 330.224 169.109 331.701 161.153C333.178 153.198 328.818 143.769 320.922 142.049C314.042 140.55 306.863 145.515 304.314 152.077C301.764 158.639 303.122 166.198 306.261 172.501C311.828 183.685 323.052 191.868 335.41 193.741C347.768 195.615 360.911 191.131 369.547 182.099" stroke="#3B3748" stroke-width="4" stroke-linecap="round" stroke-linejoin="round"/>
<path d="M303.194 223.911C321.132 228.975 336.241 243.058 342.567 260.573" stroke="#3B3748" stroke-width="4" stroke-linecap="round" stroke-linejoin="round"/>
<path d="M175.614 5.23364C182.613 22.4933 180.768 43.0741 170.809 58.8156" stroke="#3B3748" stroke-width="4" stroke-linecap="round" stroke-linejoin="round"/>
<path d="M248.279 159.453C241.945 155.399 236.387 150.246 231.866 144.237C227.494 138.477 224.268 131.932 222.366 124.956C220.415 117.586 220.076 109.883 221.373 102.37C222.572 95.0972 225.395 88.1877 229.63 82.1544C233.907 76.0997 239.605 71.1871 246.223 67.8478C252.809 64.5618 260.173 62.7491 267.55 62.9476C274.714 63.1122 281.698 65.2211 287.756 69.0488C293.683 72.8104 298.557 78.0167 301.92 84.1787C305.232 90.3344 306.936 97.4188 306.283 104.41C305.64 111.498 303.029 118.264 298.746 123.947C297.607 125.469 296.364 126.91 295.027 128.261C293.687 129.575 292.255 130.791 290.741 131.9C287.825 134.051 284.587 135.729 281.148 136.87C273.95 139.298 265.727 139.343 258.549 136.809C254.792 135.501 251.315 133.498 248.299 130.903C245.578 128.524 243.306 125.677 241.591 122.496C238.068 116.014 236.786 108.196 238.849 101.038C240.908 94.1084 245.609 88.266 251.938 84.7711C255.185 82.9801 258.788 81.9282 262.489 81.6901C266.214 81.4595 269.856 82.3113 273.245 83.7974C279.652 86.603 284.892 92.445 286.759 99.2124C288.761 106.467 286.548 114.771 281.039 119.947C279.679 121.255 278.118 122.336 276.416 123.15C274.569 123.999 272.598 124.546 270.577 124.77C266.998 125.154 263.387 124.463 260.202 122.788C258.634 121.973 257.218 120.895 256.015 119.601C254.698 118.158 253.666 116.479 252.972 114.653C251.742 111.527 251.691 107.825 252.613 104.612C253.554 101.195 255.705 98.2357 258.667 96.2881" stroke="#3B3748" stroke-width="4" stroke-linecap="round"/>
<path d="M281.731 7.34433C274.716 2.3128 264.992 1.33605 257.115 4.87189C249.238 8.40773 243.508 16.3249 242.608 24.9083C241.989 30.8174 243.793 37.2485 248.415 40.9765C253.037 44.7045 260.664 44.7365 264.476 40.1822C267.359 36.7521 267.484 31.5764 265.591 27.5281C263.697 23.4798 260.078 20.45 256.128 18.3522C246.66 13.3175 234.731 13.2279 225.179 18.0897C215.627 22.9514 208.702 32.6749 207.219 43.2952" stroke="#3B3748" stroke-width="4" stroke-linecap="round" stroke-linejoin="round"/>
<path d="M273.209 231.288C269.631 233.615 266.49 236.573 263.937 240.022C261.466 243.328 259.644 247.085 258.569 251.089C257.467 255.319 257.276 259.741 258.008 264.053C258.686 268.227 260.281 272.193 262.673 275.656C265.089 279.131 268.308 281.951 272.047 283.868C275.768 285.754 279.928 286.794 284.096 286.68C288.143 286.586 292.089 285.375 295.511 283.178C298.86 281.019 301.613 278.031 303.513 274.494C305.384 270.961 306.347 266.895 305.978 262.882C305.614 258.814 304.14 254.93 301.72 251.668C301.076 250.795 300.374 249.967 299.619 249.192C298.862 248.438 298.053 247.74 297.197 247.103C295.55 245.868 293.721 244.906 291.778 244.25C287.711 242.857 283.066 242.831 279.011 244.285C276.888 245.036 274.924 246.186 273.22 247.675C271.683 249.041 270.4 250.675 269.431 252.501C267.44 256.221 266.716 260.709 267.882 264.817C269.045 268.795 271.7 272.148 275.276 274.154C277.11 275.182 279.146 275.786 281.237 275.923C283.341 276.055 285.399 275.566 287.313 274.713C290.933 273.103 293.893 269.75 294.948 265.865C296.079 261.701 294.829 256.935 291.716 253.964C290.948 253.213 290.066 252.593 289.105 252.126C288.061 251.638 286.947 251.324 285.806 251.196C283.784 250.976 281.744 251.372 279.945 252.333C279.059 252.801 278.259 253.42 277.579 254.163C276.835 254.991 276.252 255.955 275.86 257.003C275.165 258.797 275.136 260.922 275.658 262.766C276.189 264.727 277.404 266.426 279.078 267.544" stroke="#3B3748" stroke-width="4" stroke-linecap="round"/>
</svg>
