<svg width="410" height="559" viewBox="0 0 410 559" fill="none" xmlns="http://www.w3.org/2000/svg">
<path d="M186.53 94.6682C186.53 94.6682 159.475 96.7042 162.757 113.59C165.185 126.111 185.133 127.428 200.158 121.159" stroke="#00B998" stroke-width="4" stroke-linecap="round" stroke-linejoin="round"/>
<path d="M144.557 35.1201C163.939 38.2947 182.525 44.944 199.375 55.0144L185.327 86.5454" stroke="#00B998" stroke-width="4" stroke-linecap="round" stroke-linejoin="round"/>
<path d="M172.634 2.0032C144.612 36.5839 112.693 67.8153 77.5095 95.0763C68.1923 82.4083 59.044 68.7253 57.1767 53.1121C55.3093 37.499 63.139 19.6062 78.2428 15.2109C91.0504 11.4774 104.605 18.2308 114.925 26.6858C134.186 10.5537 149.453 4.7925 172.629 2" stroke="#00B998" stroke-width="4" stroke-linecap="round" stroke-linejoin="round"/>
<path d="M105.301 91.4023C106.22 96.2023 107.003 101.17 105.953 105.941C104.902 110.713 101.603 115.289 96.8718 116.489C91.6826 117.797 86.192 114.694 83.0714 110.339C79.9508 105.984 78.7033 100.618 77.5205 95.3963" stroke="#00B998" stroke-width="4" stroke-linecap="round" stroke-linejoin="round"/>
<path d="M98.0581 108.859C103.341 114.102 109.888 119.774 117.216 118.474C122.487 117.533 126.496 113.101 128.983 108.352C133.072 100.498 134.173 91.4273 132.082 82.8223" stroke="#00B998" stroke-width="4" stroke-linecap="round" stroke-linejoin="round"/>
<path d="M96.7159 124.459L82.2788 144.015" stroke="#00B998" stroke-width="4" stroke-linecap="round" stroke-linejoin="round"/>
<path d="M139.337 69.6343C141.153 69.0283 142.805 68.0143 144.169 66.6713C145.532 65.3273 146.57 63.6893 147.202 61.8833" stroke="#00B998" stroke-width="4" stroke-linecap="round" stroke-linejoin="round"/>
<path d="M217.56 103.524L181.186 112.284L221.679 59.48L231.761 70.4764" stroke="#00B998" stroke-width="4" stroke-linecap="round" stroke-linejoin="round"/>
<path d="M276.77 144.477C283.928 130.755 288.631 114.898 285.225 99.8062C281.818 84.7152 270.228 75.5392 252.905 71.7812C246.996 70.4982 220.698 67.9112 220.958 75.7312C221.132 80.9912 243.193 85.2652 246.982 86.0572C250.77 86.8492 255.47 87.7632 259.833 88.7142C249.942 86.6162 223.159 79.7992 218.814 86.8392C215.164 96.7712 245.566 98.7712 254.875 100.919C246.411 100.189 218.442 93.4952 217.231 102.167C215.611 110.456 242.052 114.178 252.258 114.083" stroke="#00B998" stroke-width="4" stroke-linecap="round" stroke-linejoin="round"/>
<path d="M253.177 441.515C246.834 459.463 243.81 478.35 244.504 497.374L277.848 500.145" stroke="#F40934" stroke-width="4" stroke-linecap="round" stroke-linejoin="round"/>
<path d="M189.374 474.62C194.556 487.934 200.276 501.972 211.775 510.449C216.417 513.873 223.033 516.142 227.786 512.878C230.698 510.878 232.117 507.217 232.263 503.687C232.409 500.158 231.468 496.681 230.536 493.271C228.355 485.307 226.173 477.342 223.991 469.376" stroke="#F40934" stroke-width="4" stroke-linecap="round" stroke-linejoin="round"/>
<path d="M195.76 488.292L224.75 478.641" stroke="#F40934" stroke-width="4" stroke-linecap="round" stroke-linejoin="round"/>
<path d="M224.309 515.37L239.531 545.266" stroke="#F40934" stroke-width="4" stroke-linecap="round" stroke-linejoin="round"/>
<path d="M216.942 556.66L252.374 538.973" stroke="#F40934" stroke-width="4" stroke-linecap="round" stroke-linejoin="round"/>
<path d="M283.169 510.112C290.086 511.427 297.64 508.587 301.95 503.012C306.26 497.436 307.136 489.415 304.118 483.05" stroke="#F40934" stroke-width="4" stroke-linecap="round" stroke-linejoin="round"/>
<path d="M211.95 449.92C254.404 442.247 295.83 429.7 335.407 412.527C328.994 398.7 321.636 384.544 309.241 375.673C296.847 366.801 277.993 365.114 267.223 375.888C258.076 385.027 257.49 399.693 259.858 412.406C237.171 421.243 225.147 431.527 211.961 449.919" stroke="#F40934" stroke-width="4" stroke-linecap="round" stroke-linejoin="round"/>
<path d="M319.312 434.425C322.962 437.454 326.825 440.427 331.36 441.76C335.895 443.093 341.332 442.433 344.558 438.964C348.092 435.167 348.016 429.048 345.775 424.374C343.534 419.7 339.55 416.126 335.669 412.686" stroke="#F40934" stroke-width="4" stroke-linecap="round" stroke-linejoin="round"/>
<path d="M337.526 436.413C339.514 443.349 341.278 451.555 336.754 457.178C333.498 461.227 327.861 462.554 322.664 462.459C314.084 462.269 305.863 458.973 299.529 453.182" stroke="#F40934" stroke-width="4" stroke-linecap="round" stroke-linejoin="round"/>
<path d="M272.776 449.23L273.225 456.643" stroke="#F40934" stroke-width="4" stroke-linecap="round" stroke-linejoin="round"/>
<path d="M328.957 478.62L328.273 502.169" stroke="#F40934" stroke-width="4" stroke-linecap="round" stroke-linejoin="round"/>
<path d="M162.209 379.762C172.443 397.663 176.86 418.302 174.851 438.823L139.706 445.619" stroke="#7100FF" stroke-width="4" stroke-linecap="round" stroke-linejoin="round"/>
<path d="M142.995 389.137V399.88" stroke="#7100FF" stroke-width="4" stroke-linecap="round" stroke-linejoin="round"/>
<path d="M109.253 389.274C104.239 385.217 99.0628 381.068 92.8843 379.188C86.7058 377.308 79.2359 378.221 75.0185 383.104C70.6805 388.122 70.9696 395.68 72.8204 402.049C78.0797 420.142 94.7185 434.377 113.41 436.764" stroke="#7100FF" stroke-width="4" stroke-linecap="round" stroke-linejoin="round"/>
<path d="M93.2012 395.65C91.1903 401.057 92.6543 407.587 96.7802 411.62" stroke="#7100FF" stroke-width="4" stroke-linecap="round" stroke-linejoin="round"/>
<path d="M127.202 451.161C126.556 452.44 125.896 453.773 125.863 455.206C125.83 456.639 126.626 458.198 128.011 458.56C130.178 459.128 131.856 456.715 132.794 454.682C133.732 452.648 134.5 449.757 132.643 448.466C131.395 447.598 129.581 448.11 128.521 449.196C127.46 450.281 126.969 451.785 126.512 453.232" stroke="#7100FF" stroke-width="4" stroke-linecap="round" stroke-linejoin="round"/>
<path d="M121.938 358.328C106.117 348.379 84.5557 348.452 68.8007 358.509C63.9573 361.601 59.5591 365.671 57.1135 370.872C54.6679 376.073 54.4349 382.518 57.4628 387.409C45.1474 392.662 37.2368 406.705 39.1292 419.961C41.0216 433.216 52.5425 444.487 65.8373 446.085C53.9836 450.094 41.6413 454.403 32.9798 463.441C24.3183 472.479 20.8226 487.772 28.6792 497.515C34.4459 504.667 44.7233 506.873 53.7695 505.27C62.8157 503.666 70.9406 498.885 78.7599 494.065" stroke="#7100FF" stroke-width="4" stroke-linecap="round" stroke-linejoin="round"/>
<path d="M43.198 355.864L31.2549 354.501" stroke="#7100FF" stroke-width="4" stroke-linecap="round" stroke-linejoin="round"/>
<path d="M38.574 377.743H25.2979" stroke="#7100FF" stroke-width="4" stroke-linecap="round" stroke-linejoin="round"/>
<path d="M30.6071 400.806H19.3232" stroke="#7100FF" stroke-width="4" stroke-linecap="round" stroke-linejoin="round"/>
<path d="M100.511 452.091C103.275 459.198 108.088 465.325 114.34 469.692" stroke="#7100FF" stroke-width="4" stroke-linecap="round" stroke-linejoin="round"/>
<path d="M315.301 63.1863L318.567 64.9163L321.66 66.5523C325.376 60.4708 329.395 54.4994 333.107 48.4156C333.813 47.2625 335.473 45.3229 334.423 44.4707C333.27 43.5338 332.641 43.2285 331.937 42.7643L318.447 33.9163C314.843 43.485 310.635 50.0987 304.528 56.6298L306.459 57.8084L297.323 53.0219" stroke="#7100FF" stroke-width="4" stroke-linecap="round" stroke-linejoin="round"/>
<path d="M344.279 189.167C340.447 190.515 337.468 190.108 333.091 187.916C333.455 195.992 332.178 204.059 329.337 211.628C330.925 211.929 328.586 211.643 332.093 212.052C328.389 211.615 327.024 211.465 323.323 211.026" stroke="#7100FF" stroke-width="4" stroke-linecap="round" stroke-linejoin="round"/>
<path d="M23.3242 271.167C27.1568 272.515 30.1351 272.108 34.5125 269.916C34.1485 277.992 35.4256 286.059 38.2666 293.628C36.6789 293.929 39.017 293.643 35.5109 294.052C39.2141 293.615 40.5793 293.465 44.2804 293.026" stroke="#7100FF" stroke-width="4" stroke-linecap="round" stroke-linejoin="round"/>
<path d="M214.783 388.083L210.395 388.659L206.24 389.206C204.61 380.825 202.594 372.445 200.964 364.066C200.654 362.476 199.601 359.614 201.136 359.086C202.819 358.518 203.654 358.437 204.64 358.213L223.476 353.916C223.531 366.164 225.481 375.343 229.606 385.221L226.948 385.738L239.203 384.182" stroke="#7100FF" stroke-width="4" stroke-linecap="round" stroke-linejoin="round"/>
<path d="M407.209 287.595C399.227 271.588 384.299 259.185 367.107 254.282C356.277 251.194 344.302 251.082 334.087 255.776C323.872 260.47 315.796 270.446 315.102 281.691C314.408 292.936 322.188 304.612 333.239 306.772C336.918 307.495 341.935 306.104 342.035 302.346C342.095 299.705 339.548 297.785 337.131 296.719C324.899 291.36 309.35 296.739 302.105 307.924C294.86 319.11 295.88 334.697 303.565 345.626" stroke="#FFD400" stroke-width="4" stroke-miterlimit="10" stroke-linecap="round"/>
<path d="M49.8479 245.791C61.5732 228.249 65.5412 205.702 60.5042 185.224C57.3295 172.324 50.4378 159.994 39.6524 152.278C28.8671 144.561 13.9237 142.128 2 147.996" stroke="#FFD400" stroke-width="4" stroke-miterlimit="10" stroke-linecap="round"/>
<mask id="mask0_5618_13723" style="mask-type:luminance" maskUnits="userSpaceOnUse" x="85" y="173" width="211" height="153">
<path d="M295.323 173.916H85.3232V325.916H295.323V173.916Z" fill="white"/>
</mask>
<g mask="url(#mask0_5618_13723)">
<path d="M129.817 303.034C128.136 305.875 125.734 308.229 122.853 309.86C119.703 311.643 116.216 312.76 112.611 313.14V325.916H105.032V313.14C101.427 312.763 97.9394 311.646 94.7904 309.86C91.9091 308.229 89.5078 305.875 87.8259 303.034C86.1235 300.109 85.2592 296.776 85.3269 293.396C85.2628 290.011 86.1267 286.672 87.8259 283.739C89.5139 280.902 91.9137 278.55 94.7904 276.913C97.9459 275.145 101.431 274.035 105.032 273.653V260.959H112.611V273.653C116.212 274.035 119.697 275.145 122.853 276.913C125.73 278.55 128.129 280.902 129.817 283.739C131.508 286.676 132.371 290.012 132.316 293.396C132.374 296.774 131.51 300.105 129.817 303.034ZM96.2857 301.852C98.6418 304.126 101.689 305.559 104.95 305.927V280.825C101.691 281.201 98.6462 282.633 96.2857 284.9C95.2161 286.031 94.3857 287.364 93.8439 288.82C93.302 290.276 93.0596 291.825 93.1312 293.376C93.0561 294.927 93.2968 296.478 93.8389 297.934C94.3809 299.391 95.2132 300.723 96.2857 301.852ZM121.214 301.852C122.28 300.723 123.109 299.393 123.65 297.941C124.192 296.489 124.436 294.944 124.369 293.396C124.436 291.846 124.191 290.298 123.65 288.842C123.108 287.387 122.28 286.054 121.214 284.92C118.846 282.653 115.795 281.221 112.529 280.845V305.866C115.789 305.514 118.842 304.104 121.214 301.852Z" fill="#3B3748"/>
<path d="M104.07 173.916H128.65V180.986H112.058V227.666H104.172L104.07 173.916Z" fill="#3B3748"/>
<path d="M128.915 201.952C128.368 199.428 128.343 196.818 128.841 194.284C129.34 191.749 130.352 189.342 131.817 187.209C133.281 185.076 135.166 183.261 137.358 181.876C139.549 180.491 142.002 179.564 144.565 179.152C155.319 177.278 163.84 183.655 165.745 194.434L166.216 197.103L136.658 202.278C138.338 208.737 143.582 212.629 150.075 211.488C155.831 210.489 158.596 207.087 160.112 202.075L166.36 204.357C165.569 207.944 163.675 211.198 160.94 213.667C158.205 216.135 154.766 217.695 151.099 218.13C140.878 219.923 130.964 213.587 128.915 201.952ZM157.777 192.376C156.138 186.691 151.079 184.226 145.487 185.204C142.859 185.686 140.474 187.041 138.721 189.047C136.968 191.053 135.952 193.592 135.839 196.247L157.777 192.376Z" fill="#3B3748"/>
<path d="M170.396 204.295H174.288C176.029 201.137 177.095 197.347 177.484 190.338L178.385 173.916H206.653V204.295H212.265V220.045H205.014V211.304H177.504V220.045H170.396V204.295ZM198.807 204.295V180.986H184.94L184.407 190.624C183.957 198.02 183.342 201.117 181.683 204.356L198.807 204.295Z" fill="#3B3748"/>
<path d="M128.998 228.481H136.864V243.049H154.296V228.481H162.182V265.889H154.296V249.834H136.864V265.889H128.998V228.481Z" fill="#3B3748"/>
<path d="M170.436 228.481H178.015V255.478L195.918 228.481H204.255V265.889H196.676V238.892L178.773 265.889H170.436V228.481Z" fill="#3B3748"/>
<path d="M239.631 257.556C238.463 264.158 232.113 268.314 221.954 266.542C212.695 264.912 208.27 259.085 209.438 252.483C209.693 251.026 210.252 249.638 211.077 248.408L217.222 251.688C216.858 252.259 216.614 252.896 216.505 253.563C215.87 257.19 219.188 259.675 223.08 260.368C228.304 261.285 231.56 259.329 232.175 255.926C232.79 252.524 230.331 250.242 225.477 249.386L222.343 248.836L223.428 242.723L226.419 243.233C230.966 244.048 233.363 242.234 233.875 239.422C234.387 236.611 232.503 234.512 228.324 233.778C224.145 233.045 220.991 234.41 220.581 236.631C220.501 237.158 220.501 237.694 220.581 238.22L213.637 239.219C213.399 238.008 213.399 236.762 213.637 235.551C214.661 229.744 220.684 226.138 229.574 227.707C238.894 229.337 242.314 234.369 241.331 239.932C241.037 241.85 240.115 243.619 238.707 244.964C237.3 246.308 235.487 247.153 233.547 247.369C237.788 249.488 240.471 252.87 239.631 257.556Z" fill="#3B3748"/>
<path d="M247.68 228.481H258.27L269.352 257.006L280.413 228.481H291.044V265.889H283.547V239.402L272.629 265.889H266.033L255.197 239.402V265.889H247.618L247.68 228.481Z" fill="#3B3748"/>
<path d="M136.7 296.636C136.149 294.109 136.122 291.498 136.621 288.961C137.12 286.424 138.134 284.015 139.6 281.881C141.067 279.746 142.956 277.932 145.152 276.549C147.347 275.166 149.803 274.243 152.37 273.836C163.103 271.961 171.625 278.339 173.55 289.117L174.021 291.787L144.463 296.962C146.143 303.4 151.366 307.312 157.859 306.171C163.615 305.173 166.401 301.77 167.896 296.758L174.144 299.04C173.348 302.625 171.452 305.876 168.718 308.343C165.985 310.811 162.548 312.373 158.884 312.814C148.662 314.607 138.748 308.229 136.7 296.636ZM165.561 287.059C163.943 281.375 158.884 278.909 153.271 279.887C150.617 280.357 148.206 281.717 146.439 283.742C144.671 285.767 143.656 288.333 143.562 291.012L165.561 287.059Z" fill="#3B3748"/>
<path d="M178.179 293.396C178.107 290.809 178.561 288.234 179.514 285.825C180.466 283.416 181.898 281.224 183.722 279.378C185.547 277.533 187.727 276.073 190.133 275.085C192.538 274.098 195.119 273.604 197.721 273.632C205.914 273.632 211.527 276.953 214.251 283.066L207.799 286.937C206.91 285.045 205.479 283.456 203.687 282.369C201.894 281.282 199.819 280.744 197.721 280.825C191.289 280.825 186.209 285.633 186.209 293.335C186.209 301.037 191.064 305.845 197.721 305.845C199.904 305.96 202.071 305.417 203.939 304.286C205.807 303.156 207.288 301.491 208.188 299.509L214.477 303.36C212.881 306.379 210.463 308.892 207.5 310.61C204.538 312.329 201.149 313.184 197.721 313.079C195.112 313.16 192.514 312.704 190.09 311.74C187.666 310.777 185.468 309.326 183.633 307.478C181.799 305.631 180.368 303.426 179.429 301.003C178.491 298.58 178.065 295.99 178.179 293.396Z" fill="#3B3748"/>
<path d="M228.345 281.701H216.588V274.712H248.03V281.721H236.293V312.121H228.407L228.345 281.701Z" fill="#3B3748"/>
<path d="M265.884 201.361H293.271C293.814 201.361 294.335 201.147 294.72 200.765C295.104 200.383 295.32 199.864 295.32 199.324C295.32 198.784 295.104 198.265 294.72 197.883C294.335 197.501 293.814 197.287 293.271 197.287H265.884C265.341 197.287 264.82 197.501 264.436 197.883C264.052 198.265 263.836 198.784 263.836 199.324C263.836 199.864 264.052 200.383 264.436 200.765C264.82 201.147 265.341 201.361 265.884 201.361Z" fill="#3B3748"/>
<path fill-rule="evenodd" clip-rule="evenodd" d="M215.982 198.046C215.982 188.107 223.805 179.967 233.777 179.026L234.25 180.294C229.192 183.867 225.917 189.638 225.917 196.142C225.917 205.222 232.306 212.881 241.006 215.106L241.014 216.46C239.327 216.914 237.549 217.157 235.714 217.157C224.836 217.157 215.982 208.62 215.982 198.046Z" fill="#3B3748"/>
<path fill-rule="evenodd" clip-rule="evenodd" d="M239.831 180.954L240.283 179.662C249.567 180.819 256.785 188.332 256.785 197.489C256.785 203.435 253.735 208.696 249.058 211.964L248.045 211.042C249.906 207.809 250.961 204.106 250.961 200.171C250.961 192.119 246.539 185.026 239.831 180.954Z" fill="#3B3748"/>
</g>
</svg>
