<svg width="24" height="24" viewBox="0 0 24 24" fill="none" xmlns="http://www.w3.org/2000/svg">
<g id="icon" clip-path="url(#clip0_5440_3700)">
<path id="Vector" d="M23.124 9.90699L19.245 6.02899C19.0575 5.84152 18.8032 5.73621 18.538 5.73621C18.2728 5.73621 18.0185 5.84152 17.831 6.02899C17.6435 6.21652 17.5382 6.47083 17.5382 6.73599C17.5382 7.00116 17.6435 7.25546 17.831 7.44299L21.386 11H1C0.734784 11 0.48043 11.1053 0.292893 11.2929C0.105357 11.4804 0 11.7348 0 12H0C0 12.2652 0.105357 12.5196 0.292893 12.7071C0.48043 12.8946 0.734784 13 1 13H21.447L17.831 16.615C17.738 16.7079 17.6643 16.8182 17.6139 16.9396C17.5636 17.061 17.5377 17.1911 17.5377 17.3225C17.5377 17.4539 17.5636 17.584 17.6139 17.7054C17.6643 17.8268 17.738 17.9371 17.831 18.03C18.0185 18.2175 18.2728 18.3228 18.538 18.3228C18.8032 18.3228 19.0575 18.2175 19.245 18.03L23.125 14.151C23.6859 13.5872 24.0007 12.8241 24.0006 12.0288C24.0004 11.2335 23.6852 10.4706 23.124 9.90699Z" fill="#3B3748"/>
</g>
<defs>
<clipPath id="clip0_5440_3700">
<rect width="24" height="24" fill="white"/>
</clipPath>
</defs>
</svg>
