<svg width="44" height="44" viewBox="0 0 44 44" fill="none" xmlns="http://www.w3.org/2000/svg">
<g id="event icon" filter="url(#filter0_d_1423_4072)">
<rect x="4" y="2" width="36" height="36" rx="18" fill="#7100FF" shape-rendering=""/>
<g id="glass">
<path id="Vector" d="M25.9999 26.6667H22.6666V21.2933C24.1328 21.1294 25.4873 20.431 26.4711 19.3315C27.455 18.2321 27.9994 16.4754 28.0001 15C28.0034 14.2244 27.8514 13.1227 27.5533 12.4067C27.5188 12.3267 27.469 12.2542 27.4066 12.1933L27.3333 12.14C27.2907 12.1049 27.2436 12.0758 27.1933 12.0533C27.1342 12.026 27.0712 12.008 27.0066 12H26.9399H17.0599H16.9999C16.9338 12.003 16.8685 12.0165 16.8066 12.04C16.7581 12.0683 16.7114 12.0995 16.6666 12.1333L16.5866 12.1933C16.5242 12.2542 16.4744 12.3267 16.4399 12.4067C16.1441 13.1231 15.9944 14.2249 15.9999 15C16.0006 16.4754 16.5449 18.2321 17.5288 19.3315C18.5126 20.431 19.867 21.1294 21.3333 21.2933V26.6667H17.9999C17.8231 26.6667 17.6536 26.7369 17.5285 26.8619C17.4035 26.987 17.3333 27.1565 17.3333 27.3333C17.3333 27.5101 17.4035 27.6797 17.5285 27.8047C17.6536 27.9298 17.8231 28 17.9999 28H25.9999C26.1768 28 26.3463 27.9298 26.4713 27.8047C26.5964 27.6797 26.6666 27.5101 26.6666 27.3333C26.6666 27.1565 26.5964 26.987 26.4713 26.8619C26.3463 26.7369 26.1768 26.6667 25.9999 26.6667ZM17.3334 15C17.3322 14.5485 17.3972 13.7659 17.5266 13.3333H26.4733C26.6027 13.7659 26.668 14.5485 26.6667 15C26.6667 16.2377 26.1749 17.758 25.2998 18.6332C24.4246 19.5083 23.2376 20 21.9999 20C20.7623 20 19.5753 19.5083 18.7001 18.6332C17.8249 17.758 17.3334 16.2377 17.3334 15Z" fill="white"/>
</g>
</g>
<defs>
<filter id="filter0_d_1423_4072" x="0" y="0" width="44" height="44" filterUnits="userSpaceOnUse" color-interpolation-filters="sRGB">
<feFlood flood-opacity="0" result="BackgroundImageFix"/>
<feColorMatrix in="SourceAlpha" type="matrix" values="0 0 0 0 0 0 0 0 0 0 0 0 0 0 0 0 0 0 127 0" result="hardAlpha"/>
<feOffset dy="2"/>
<feGaussianBlur stdDeviation="2"/>
<feComposite in2="hardAlpha" operator="out"/>
<feColorMatrix type="matrix" values="0 0 0 0 0.231373 0 0 0 0 0.215686 0 0 0 0 0.282353 0 0 0 0.12 0"/>
<feBlend mode="normal" in2="BackgroundImageFix" result="effect1_dropShadow_1423_4072"/>
<feBlend mode="normal" in="SourceGraphic" in2="effect1_dropShadow_1423_4072" result="shape"/>
</filter>
</defs>
</svg>
