<svg width="44" height="44" viewBox="0 0 44 44" fill="none" xmlns="http://www.w3.org/2000/svg">
<g id="event icon" filter="url(#filter0_d_1423_4074)">
<rect x="4" y="2" width="36" height="36" rx="18" fill="#7100FF" shape-rendering=""/>
<g id="fork">
<path id="Vector" d="M26.6666 12C26.4898 12 26.3202 12.0702 26.1952 12.1953C26.0702 12.3203 26 12.4899 26 12.6667V17.64L25.3333 18.0867V12.6667C25.3333 12.4899 25.2631 12.3203 25.138 12.1953C25.013 12.0702 24.8434 12 24.6666 12C24.4898 12 24.3202 12.0702 24.1952 12.1953C24.0702 12.3203 24 12.4899 24 12.6667V18.0867L23.3333 17.64V12.6667C23.3333 12.4899 23.2631 12.3203 23.138 12.1953C23.013 12.0702 22.8434 12 22.6666 12C22.4898 12 22.3202 12.0702 22.1952 12.1953C22.0702 12.3203 22 12.4899 22 12.6667V18C22.0005 18.1098 22.0282 18.2178 22.0805 18.3143C22.1329 18.4108 22.2083 18.4929 22.3 18.5533L24 19.6933V27.3333C24 27.5101 24.0702 27.6797 24.1952 27.8047C24.3202 27.9298 24.4898 28 24.6666 28C24.8434 28 25.013 27.9298 25.138 27.8047C25.2631 27.6797 25.3333 27.5101 25.3333 27.3333V19.6933L27.0333 18.5533C27.125 18.4929 27.2004 18.4108 27.2527 18.3143C27.305 18.2178 27.3327 18.1098 27.3333 18V12.6667C27.3333 12.4899 27.2631 12.3203 27.138 12.1953C27.013 12.0702 26.8434 12 26.6666 12ZM20 12C19.1159 12 18.2681 12.3512 17.6429 12.9763C17.0178 13.6014 16.6666 14.4493 16.6666 15.3333V20.6667C16.6666 20.8435 16.7369 21.013 16.8619 21.1381C16.9869 21.2631 17.1565 21.3333 17.3333 21.3333H19.3333V27.3333C19.3333 27.5101 19.4035 27.6797 19.5286 27.8047C19.6536 27.9298 19.8231 28 20 28C20.1768 28 20.3463 27.9298 20.4714 27.8047C20.5964 27.6797 20.6666 27.5101 20.6666 27.3333V12.6667C20.6666 12.4899 20.5964 12.3203 20.4714 12.1953C20.3463 12.0702 20.1768 12 20 12ZM19.3333 20H18V15.3333C17.9997 14.9196 18.1279 14.5159 18.3667 14.178C18.6055 13.8401 18.9432 13.5846 19.3333 13.4467V20Z" fill="white"/>
</g>
</g>
<defs>
<filter id="filter0_d_1423_4074" x="0" y="0" width="44" height="44" filterUnits="userSpaceOnUse" color-interpolation-filters="sRGB">
<feFlood flood-opacity="0" result="BackgroundImageFix"/>
<feColorMatrix in="SourceAlpha" type="matrix" values="0 0 0 0 0 0 0 0 0 0 0 0 0 0 0 0 0 0 127 0" result="hardAlpha"/>
<feOffset dy="2"/>
<feGaussianBlur stdDeviation="2"/>
<feComposite in2="hardAlpha" operator="out"/>
<feColorMatrix type="matrix" values="0 0 0 0 0.231373 0 0 0 0 0.215686 0 0 0 0 0.282353 0 0 0 0.12 0"/>
<feBlend mode="normal" in2="BackgroundImageFix" result="effect1_dropShadow_1423_4074"/>
<feBlend mode="normal" in="SourceGraphic" in2="effect1_dropShadow_1423_4074" result="shape"/>
</filter>
</defs>
</svg>
